# xmcd
#
# Track frame offsets:
#	150
#	10075
#	17700
#	27887
#	39950
#	50650
#	63100
#	71337
#	80962
#	90175
#	101887
#
# Disc length: 1507 seconds
#
# Revision: 1
# Processed by: cddbd v1.5.2PL0 Copyright (c) Steve Scherf et al.
# Submitted via: audiograbber 1.83.01
#
DISCID=7f05e10b
DTITLE=Johnny Cash and Tennessee Two - Original Golden Hits Vol.2
DYEAR=1991
DGENRE=Country
TTITLE0=Ballad Of A Teenage Queen
TTITLE1=Come In Stranger
TTITLE2=The Ways Of A Wowan In Love
TTITLE3=You´re The Nearest Thing To Heaven
TTITLE4=I Just Thought You´d Like
TTITLE5=Give My Love To Rose
TTITLE6=Guess Things Happen That Way
TTITLE7=Just About Time
TTITLE8=Luther´s Boogie
TTITLE9=Thanks A Lot
TTITLE10=Big River
EXTD=
EXTT0=
EXTT1=
EXTT2=
EXTT3=
EXTT4=
EXTT5=
EXTT6=
EXTT7=
EXTT8=
EXTT9=
EXTT10=
PLAYORDER=
